<?xml version="1.0" encoding="UTF-8" standalone="no"?>
<!-- Created with Inkscape (http://www.inkscape.org/) -->

<svg
   width="192"
   height="128"
   viewBox="0 0 384 256"
   version="1.1"
   id="SVGRoot"
   sodipodi:docname="shooty.svg"
   inkscape:version="1.2.1 (9c6d41e410, 2022-07-14)"
   xmlns:inkscape="http://www.inkscape.org/namespaces/inkscape"
   xmlns:sodipodi="http://sodipodi.sourceforge.net/DTD/sodipodi-0.dtd"
   xmlns="http://www.w3.org/2000/svg"
   xmlns:svg="http://www.w3.org/2000/svg">
  <sodipodi:namedview
     id="namedview137"
     pagecolor="#505050"
     bordercolor="#eeeeee"
     borderopacity="1"
     inkscape:showpageshadow="0"
     inkscape:pageopacity="0"
     inkscape:pagecheckerboard="0"
     inkscape:deskcolor="#505050"
     inkscape:document-units="px"
     showgrid="true"
     inkscape:zoom="5.6568542"
     inkscape:cx="21.124815"
     inkscape:cy="90.509668"
     inkscape:window-width="1920"
     inkscape:window-height="1057"
     inkscape:window-x="-8"
     inkscape:window-y="-8"
     inkscape:window-maximized="1"
     inkscape:current-layer="layer1">
    <inkscape:grid
       type="xygrid"
       id="grid260"
       spacingx="8"
       spacingy="8"
       empspacing="4"
       originx="0"
       originy="0" />
  </sodipodi:namedview>
  <defs
     id="defs132">
    <inkscape:path-effect
       effect="bspline"
       id="path-effect1244"
       is_visible="true"
       lpeversion="1"
       weight="33.333333"
       steps="2"
       helper_size="0"
       apply_no_weight="true"
       apply_with_weight="true"
       only_selected="false" />
  </defs>
  <g
     inkscape:label="Layer 1"
     inkscape:groupmode="layer"
     id="layer1">
    <path
       id="path402"
       style="fill:#ffffff;stroke-width:12;stroke-linecap:round;stroke-linejoin:round;paint-order:fill markers stroke"
       d="M 128 48 A 80 80 0 0 0 48 128 A 80 80 0 0 0 128 208 A 80 80 0 0 0 208 128 A 80 80 0 0 0 128 48 z M 97.824219 79.679688 A 12.070339 12.070339 0 0 0 97.828125 79.679688 C 102.56739 79.680403 107.2781 81.628944 110.62891 84.980469 L 128 102.35156 L 145.37109 84.980469 C 148.7219 81.628944 153.43261 79.680403 158.17188 79.679688 A 12.070339 12.070339 0 0 0 158.17578 79.679688 C 162.91505 79.680403 167.62185 81.628944 170.97266 84.980469 C 177.67374 91.682984 177.67374 103.87952 170.97266 110.58203 L 153.60156 127.95312 L 170.97266 145.32812 C 177.67374 152.03064 177.67374 164.22326 170.97266 170.92578 A 12.070339 12.070339 0 0 0 170.97266 170.92969 C 164.27014 177.63077 152.07361 177.63077 145.37109 170.92969 L 128 153.55859 L 110.62891 170.92969 C 103.92639 177.63077 91.729859 177.63077 85.027344 170.92969 A 12.070339 12.070339 0 0 0 85.027344 170.92578 C 78.32626 164.22326 78.32626 152.03064 85.027344 145.32812 L 102.39844 127.95312 L 85.027344 110.58203 C 78.32626 103.87952 78.32626 91.682984 85.027344 84.980469 C 88.378152 81.628944 93.084954 79.680403 97.824219 79.679688 z " />
    <path
       id="path369"
       style="fill:#ffffff;fill-opacity:1;stroke:none;stroke-width:6;stroke-linecap:round;stroke-linejoin:round;paint-order:fill markers stroke"
       d="M 128 0 A 128 128 0 0 0 0 128 A 128 128 0 0 0 128 256 C 134.94315 256 143.03638 255.18119 151.48047 253.6875 A 128 128 0 0 0 153.78516 253.29297 C 170.64476 250.06075 188.77341 243.9145 202.66797 234.66797 C 240.57446 209.44198 288 143.99996 288 128 C 288 112.00004 240.5742 46.561878 202.66797 21.335938 C 189.13323 12.328804 171.56262 6.2277068 155.07812 2.9296875 A 128 128 0 0 0 128 0 z M 127.98047 15.898438 L 127.98828 15.898438 C 135.9511 15.908542 143.91475 16.770914 151.69531 18.464844 A 15.900998 15.900998 0 0 0 151.95703 18.519531 C 166.87393 21.503923 182.85134 27.248562 193.85938 34.574219 C 210.07964 45.368528 231.08847 67.268433 246.95703 87.839844 C 254.89132 98.125548 261.66811 108.13437 266.20703 116.04297 C 269.20576 121.26794 270.7302 126.16957 271.47656 128 C 270.73017 129.8306 269.20578 134.7318 266.20703 139.95703 C 261.6681 147.86602 254.89131 157.87788 246.95703 168.16406 C 231.08849 188.73642 210.07944 210.63557 193.85938 221.42969 C 182.5792 228.9364 166.09022 234.7383 150.83203 237.66797 C 150.20305 237.78081 149.57223 237.89012 148.94141 237.99219 A 15.900998 15.900998 0 0 0 148.71094 238.03125 C 141.00135 239.39501 133.69313 240.10156 128 240.10156 C 98.652163 240.10156 69.486429 228.02158 48.734375 207.26953 C 27.982321 186.51747 15.898438 157.34784 15.898438 128 C 15.898438 98.652163 27.982321 69.486429 48.734375 48.734375 C 69.481827 27.986923 98.639219 15.903794 127.98047 15.898438 z " />
  </g>
</svg>
