<?xml version="1.0" encoding="UTF-8" standalone="no"?>
<!-- Created with Inkscape (http://www.inkscape.org/) -->

<svg
   width="768"
   height="512"
   viewBox="0 0 384 256"
   version="1.1"
   id="SVGRoot"
   sodipodi:docname="truck.svg"
   inkscape:version="1.2.1 (9c6d41e410, 2022-07-14)"
   xmlns:inkscape="http://www.inkscape.org/namespaces/inkscape"
   xmlns:sodipodi="http://sodipodi.sourceforge.net/DTD/sodipodi-0.dtd"
   xmlns="http://www.w3.org/2000/svg"
   xmlns:svg="http://www.w3.org/2000/svg">
  <sodipodi:namedview
     id="namedview137"
     pagecolor="#505050"
     bordercolor="#eeeeee"
     borderopacity="1"
     inkscape:showpageshadow="0"
     inkscape:pageopacity="0"
     inkscape:pagecheckerboard="0"
     inkscape:deskcolor="#505050"
     inkscape:document-units="px"
     showgrid="true"
     inkscape:zoom="0.5"
     inkscape:cx="276"
     inkscape:cy="250"
     inkscape:window-width="1920"
     inkscape:window-height="1057"
     inkscape:window-x="-8"
     inkscape:window-y="-8"
     inkscape:window-maximized="1"
     inkscape:current-layer="layer1">
    <inkscape:grid
       type="xygrid"
       id="grid260"
       spacingx="8"
       spacingy="8"
       empspacing="4"
       originx="0"
       originy="0"
       visible="true" />
  </sodipodi:namedview>
  <defs
     id="defs132">
    <inkscape:path-effect
       effect="bspline"
       id="path-effect1244"
       is_visible="true"
       lpeversion="1"
       weight="33.333333"
       steps="2"
       helper_size="0"
       apply_no_weight="true"
       apply_with_weight="true"
       only_selected="false" />
  </defs>
  <g
     inkscape:label="Layer 1"
     inkscape:groupmode="layer"
     id="layer1">
    <path
       id="rect1376"
       style="fill:#ffffff;stroke-width:6;stroke-linecap:round;stroke-linejoin:round;paint-order:fill markers stroke"
       d="m 16,8 h 248 c 4.432,0 8,3.568 8,8 v 224 c 0,4.432 -3.568,8 -8,8 H 16 c -4.432,0 -8,-3.568 -8,-8 V 16 c 0,-4.432 3.568,-8 8,-8 z" />
    <path
       id="rect1378"
       style="fill:#ffffff;stroke-width:6;stroke-linecap:round;stroke-linejoin:round;paint-order:fill markers stroke"
       d="m 232,40 c -4.432,0 -8,3.568004 -8,8 v 160 c 0,4.432 3.568,8 8,8 h 136 c 4.432,0 8,-3.568 8,-8 V 48 c 0,-4.431996 -3.568,-8 -8,-8 z m 8,16 H 360 V 200 H 240 Z" />
  </g>
</svg>
